<svg width="24" height="24" viewBox="0 0 24 24" fill="none" xmlns="http://www.w3.org/2000/svg">
<path d="M7 10V7.5C7 4.76562 9.22656 2.5 12 2.5C14.7344 2.5 17 4.76562 17 7.5V10H18.25C19.6172 10 20.75 11.1328 20.75 12.5V20C20.75 21.4062 19.6172 22.5 18.25 22.5H5.75C4.34375 22.5 3.25 21.4062 3.25 20V12.5C3.25 11.1328 4.34375 10 5.75 10H7ZM8.875 10H15.125V7.5C15.125 5.78125 13.7188 4.375 12 4.375C10.2422 4.375 8.875 5.78125 8.875 7.5V10ZM5.125 20C5.125 20.3516 5.39844 20.625 5.75 20.625H18.25C18.5625 20.625 18.875 20.3516 18.875 20V12.5C18.875 12.1875 18.5625 11.875 18.25 11.875H5.75C5.39844 11.875 5.125 12.1875 5.125 12.5V20Z" fill="#FAC515"/>
</svg>
