<svg width="32" height="32" viewBox="0 0 32 32" fill="none" xmlns="http://www.w3.org/2000/svg">
<path d="M32 16C32 24.8366 24.8366 32 16 32C7.16344 32 0 24.8366 0 16C0 7.16344 7.16344 0 16 0C24.8366 0 32 7.16344 32 16Z" fill="#0B0B0B"/>
<path d="M11.625 10.3438C8.5 10.3438 6 12.875 6 16C6 19.1562 8.5 21.6875 11.625 21.6875C14.75 21.6875 17.2812 19.1562 17.2812 16C17.2812 12.875 14.75 10.3438 11.625 10.3438ZM20.625 10.6562C19.0625 10.6562 17.8125 13.0625 17.8125 16.0312C17.8125 18.9688 19.0625 21.375 20.625 21.375C22.1875 21.375 23.4688 18.9688 23.4688 16.0312C23.4688 13.0625 22.1875 10.6562 20.625 10.6562ZM25 11.2188C24.4375 11.2188 24 13.375 24 16.0312C24 18.6562 24.4375 20.8125 25 20.8125C25.5312 20.8125 26 18.6562 26 16C26 13.375 25.5312 11.2188 25 11.2188Z" fill="white"/>
</svg>
