<svg width="20" height="20" viewBox="0 0 20 20" fill="none" xmlns="http://www.w3.org/2000/svg">
<circle cx="10" cy="10" r="10" fill="#2081E2"/>
<path d="M4.51863 10.829L4.56383 10.7577L7.28925 6.47886C7.32908 6.41621 7.42273 6.42269 7.45286 6.49074C7.90818 7.51481 8.30105 8.78843 8.117 9.58133C8.03842 9.90757 7.82315 10.3494 7.58095 10.7577C7.54975 10.8171 7.5153 10.8755 7.47869 10.9316C7.46147 10.9576 7.43241 10.9727 7.40119 10.9727H4.59828C4.52293 10.9727 4.4788 10.8906 4.51863 10.829Z" fill="white"/>
<path d="M16.6667 11.6239V12.3013C16.6667 12.3401 16.643 12.3747 16.6085 12.3898C16.3976 12.4806 15.6753 12.8133 15.375 13.2324C14.6086 14.3029 14.0231 15.8337 12.7142 15.8337H7.25364C5.31831 15.8337 3.75 14.2543 3.75 12.3056V12.2429C3.75 12.1911 3.79197 12.1489 3.84364 12.1489H6.88768C6.94795 12.1489 6.99207 12.2051 6.98671 12.2645C6.96517 12.4633 7.00178 12.6664 7.09542 12.8511C7.27625 13.2195 7.65083 13.4496 8.05555 13.4496H9.5625V12.2688H8.07277C7.99636 12.2688 7.95116 12.1803 7.99529 12.1176C8.01142 12.0928 8.02973 12.0668 8.0491 12.0377C8.19011 11.8368 8.39139 11.5246 8.5916 11.1692C8.7283 10.9293 8.86069 10.6733 8.96726 10.4162C8.9888 10.3698 9.006 10.3222 9.02322 10.2758C9.05229 10.1937 9.08244 10.117 9.10396 10.0403C9.1255 9.97547 9.1427 9.90742 9.15992 9.84368C9.21053 9.62547 9.23205 9.3943 9.23205 9.15449C9.23205 9.06052 9.22775 8.96221 9.21914 8.86823C9.21482 8.76561 9.20192 8.66297 9.18899 8.56035C9.18038 8.46961 9.16424 8.37995 9.14702 8.28597C9.1255 8.14878 9.09535 8.01268 9.0609 7.87547L9.04906 7.82363C9.02322 7.72964 9.0017 7.63999 8.97157 7.54601C8.88652 7.25109 8.78859 6.96375 8.68524 6.69478C8.64757 6.58783 8.60451 6.48521 8.56145 6.38259C8.49796 6.22811 8.43336 6.08768 8.37417 5.9548C8.34404 5.8943 8.3182 5.83921 8.29237 5.78304C8.2633 5.7193 8.23317 5.65556 8.20302 5.59509C8.1815 5.54863 8.15673 5.50542 8.13951 5.46221L7.95545 5.12085C7.92962 5.0744 7.97268 5.0193 8.02326 5.03335L9.17501 5.34661H9.17824C9.18038 5.34661 9.18146 5.34771 9.18253 5.34771L9.3343 5.38983L9.50115 5.43737L9.5625 5.45464V4.76761C9.5625 4.43597 9.82729 4.16699 10.1545 4.16699C10.3181 4.16699 10.4667 4.23397 10.5732 4.34306C10.6798 4.45218 10.7465 4.60125 10.7465 4.76761V5.78737L10.8692 5.82192C10.8789 5.82518 10.8886 5.82949 10.8972 5.83597C10.9274 5.85866 10.9704 5.89214 11.0253 5.93321C11.0684 5.96776 11.1147 6.0099 11.1706 6.05311C11.2815 6.14276 11.4139 6.25835 11.5592 6.39123C11.5979 6.42471 11.6356 6.45928 11.6701 6.49385C11.8574 6.66885 12.0673 6.87409 12.2675 7.10094C12.3234 7.16468 12.3783 7.22949 12.4343 7.29754C12.4903 7.36668 12.5495 7.43473 12.6011 7.5028C12.669 7.59354 12.7422 7.68752 12.8057 7.78582C12.8358 7.83228 12.8702 7.8798 12.8993 7.92625C12.9811 8.05047 13.0532 8.17904 13.1221 8.30759C13.1512 8.36699 13.1813 8.4318 13.2072 8.49554C13.2836 8.6673 13.3439 8.8423 13.3826 9.0173C13.3944 9.05511 13.4031 9.09616 13.4074 9.1329V9.14154C13.4203 9.19337 13.4246 9.24847 13.4289 9.30464C13.4461 9.48397 13.4375 9.66328 13.3988 9.84368C13.3826 9.9204 13.3611 9.99276 13.3352 10.0695C13.3094 10.1429 13.2836 10.2196 13.2502 10.292C13.1856 10.4421 13.1092 10.5923 13.0188 10.7327C12.9897 10.7846 12.9553 10.8397 12.9208 10.8915C12.8832 10.9466 12.8444 10.9985 12.81 11.0493C12.7626 11.1141 12.712 11.1821 12.6604 11.2426C12.6141 11.3063 12.5667 11.3701 12.515 11.4263C12.4429 11.5116 12.374 11.5926 12.3019 11.6704C12.2589 11.7212 12.2126 11.773 12.1652 11.8195C12.1189 11.8713 12.0716 11.9178 12.0285 11.961C11.9564 12.0333 11.8961 12.0895 11.8455 12.136L11.7271 12.2451C11.7099 12.2602 11.6873 12.2688 11.6636 12.2688H10.7465V13.4496H11.9004C12.1587 13.4496 12.4042 13.3577 12.6022 13.1892C12.67 13.1298 12.966 12.8727 13.3159 12.4849C13.3277 12.4719 13.3428 12.4622 13.36 12.4579L16.5472 11.5332C16.6064 11.5159 16.6667 11.5613 16.6667 11.6239Z" fill="white"/>
</svg>
