<svg width="32" height="32" viewBox="0 0 32 32" fill="none" xmlns="http://www.w3.org/2000/svg">
<path d="M32 16C32 24.8366 24.8366 32 16 32C7.16344 32 0 24.8366 0 16C0 7.16344 7.16344 0 16 0C24.8366 0 32 7.16344 32 16Z" fill="#5865F2"/>
<path d="M22.375 10.1875C22.375 10.1875 22.375 10.1875 22.3438 10.1875C21.1562 9.625 19.9062 9.25 18.625 9.03125C18.5938 9 18.5625 9.03125 18.5625 9.03125C18.375 9.34375 18.2188 9.6875 18.0938 10C16.6875 9.78125 15.2812 9.78125 13.875 10C13.75 9.6875 13.5938 9.34375 13.4062 9.03125C13.4062 9.03125 13.375 9 13.3438 9.03125C12.0625 9.25 10.8125 9.625 9.625 10.1875C9.59375 10.1875 9.59375 10.1875 9.59375 10.1875C7.21875 13.75 6.5625 17.2188 6.875 20.6562C6.875 20.6562 6.875 20.6875 6.90625 20.6875C8.28125 21.7188 9.84375 22.5 11.5 23C11.5 23.0312 11.5312 23 11.5625 23C11.9062 22.5 12.2188 22 12.5 21.4688C12.5 21.4375 12.5 21.4062 12.4688 21.375C11.9688 21.1875 11.4688 20.9688 11.0312 20.6875C11 20.6875 10.9688 20.625 11.0312 20.5938C11.125 20.5312 11.2188 20.4688 11.3125 20.375C11.3125 20.375 11.3438 20.375 11.375 20.375C14.375 21.75 17.625 21.75 20.5938 20.375C20.625 20.375 20.625 20.375 20.6562 20.375C20.75 20.4688 20.8438 20.5312 20.9375 20.5938C20.9688 20.625 20.9688 20.6875 20.9375 20.6875C20.4688 20.9688 20 21.1875 19.5 21.375C19.4688 21.4062 19.4688 21.4375 19.4688 21.4688C19.75 22 20.0625 22.5 20.4062 23C20.4375 23 20.4375 23.0312 20.4688 23C22.125 22.5 23.6875 21.7188 25.0625 20.6875C25.0938 20.6875 25.0938 20.6562 25.0938 20.6562C25.4688 16.6875 24.4375 13.25 22.375 10.1875ZM12.9375 18.5625C12.0312 18.5625 11.2812 17.7188 11.2812 16.7188C11.2812 15.6875 12.0312 14.875 12.9375 14.875C13.875 14.875 14.5938 15.6875 14.5938 16.7188C14.5938 17.7188 13.8438 18.5625 12.9375 18.5625ZM19.0312 18.5625C18.125 18.5625 17.4062 17.7188 17.4062 16.7188C17.4062 15.6875 18.125 14.875 19.0312 14.875C19.9688 14.875 20.7188 15.6875 20.6875 16.7188C20.6875 17.7188 19.9688 18.5625 19.0312 18.5625Z" fill="white"/>
</svg>
