<svg width="21" height="20" viewBox="0 0 21 20" fill="none" xmlns="http://www.w3.org/2000/svg">
<path d="M19.0605 1L11.6382 6.62499L13.0184 3.31L19.0605 1Z" fill="#E17726" stroke="#E17726" stroke-width="0.36" stroke-linecap="round" stroke-linejoin="round"/>
<path d="M1.93994 1L9.29617 6.67749L7.98205 3.30999L1.93994 1Z" fill="#E27625" stroke="#E27625" stroke-width="0.36" stroke-linecap="round" stroke-linejoin="round"/>
<path d="M16.3879 14.0439L14.4131 17.1339L18.6418 18.3265L19.8532 14.1115L16.3879 14.0439Z" fill="#E27625" stroke="#E27625" stroke-width="0.36" stroke-linecap="round" stroke-linejoin="round"/>
<path d="M1.15381 14.1115L2.35782 18.3265L6.57922 17.1339L4.61167 14.0439L1.15381 14.1115Z" fill="#E27625" stroke="#E27625" stroke-width="0.36" stroke-linecap="round" stroke-linejoin="round"/>
<path d="M6.35236 8.82318L5.17773 10.6382L9.36241 10.8332L9.22293 6.2207L6.35236 8.82318Z" fill="#E27625" stroke="#E27625" stroke-width="0.36" stroke-linecap="round" stroke-linejoin="round"/>
<path d="M14.6482 8.82393L11.7336 6.16895L11.6382 10.8339L15.8228 10.6389L14.6482 8.82393Z" fill="#E27625" stroke="#E27625" stroke-width="0.36" stroke-linecap="round" stroke-linejoin="round"/>
<path d="M6.58008 17.1321L9.11288 15.8796L6.93249 14.1396L6.58008 17.1321Z" fill="#E27625" stroke="#E27625" stroke-width="0.36" stroke-linecap="round" stroke-linejoin="round"/>
<path opacity="0.8" d="M11.8877 15.8796L14.4132 17.1321L14.0681 14.1396L11.8877 15.8796Z" fill="#E27625" stroke="#E27625" stroke-width="0.36" stroke-linecap="round" stroke-linejoin="round"/>
<path d="M14.4132 17.1314L11.8877 15.8789L12.0932 17.5589L12.0712 18.2714L14.4132 17.1314Z" fill="#D5BFB2" stroke="#D5BFB2" stroke-width="0.36" stroke-linecap="round" stroke-linejoin="round"/>
<path d="M6.58008 17.1314L8.92939 18.2714L8.91469 17.5589L9.11288 15.8789L6.58008 17.1314Z" fill="#D5BFB2" stroke="#D5BFB2" stroke-width="0.36" stroke-linecap="round" stroke-linejoin="round"/>
<path d="M8.97274 13.0306L6.87305 12.4006L8.35603 11.7031L8.97274 13.0306Z" fill="#233447" stroke="#233447" stroke-width="0.36" stroke-linecap="round" stroke-linejoin="round"/>
<path d="M12.0269 13.0306L12.6436 11.7031L14.1339 12.4006L12.0269 13.0306Z" fill="#233447" stroke="#233447" stroke-width="0.36" stroke-linecap="round" stroke-linejoin="round"/>
<path d="M6.57933 17.1339L6.94643 14.0439L4.61182 14.1115L6.57933 17.1339Z" fill="#CC6228" stroke="#CC6228" stroke-width="0.36" stroke-linecap="round" stroke-linejoin="round"/>
<path d="M14.0527 14.0439L14.4125 17.1339L16.3874 14.1115L14.0527 14.0439Z" fill="#CC6228" stroke="#CC6228" stroke-width="0.36" stroke-linecap="round" stroke-linejoin="round"/>
<path d="M15.8228 10.6367L11.6382 10.8317L12.0273 13.0293L12.644 11.7017L14.1343 12.3992L15.8228 10.6367Z" fill="#CC6228" stroke="#CC6228" stroke-width="0.36" stroke-linecap="round" stroke-linejoin="round"/>
<path d="M6.87363 12.3992L8.35661 11.7017L8.97332 13.0293L9.36241 10.8317L5.17773 10.6367L6.87363 12.3992Z" fill="#CC6228" stroke="#CC6228" stroke-width="0.36" stroke-linecap="round" stroke-linejoin="round"/>
<path d="M5.17773 10.6367L6.93238 14.1392L6.8736 12.3992L5.17773 10.6367Z" fill="#E27525" stroke="#E27525" stroke-width="0.36" stroke-linecap="round" stroke-linejoin="round"/>
<path d="M14.1334 12.3992L14.0674 14.1392L15.822 10.6367L14.1334 12.3992Z" fill="#E27525" stroke="#E27525" stroke-width="0.36" stroke-linecap="round" stroke-linejoin="round"/>
<path d="M9.36229 10.833L8.97314 13.0306L9.46502 15.6255L9.57517 12.2055L9.36229 10.833Z" fill="#E27525" stroke="#E27525" stroke-width="0.36" stroke-linecap="round" stroke-linejoin="round"/>
<path d="M11.6377 10.833L11.4321 12.1981L11.5349 15.6255L12.0268 13.0306L11.6377 10.833Z" fill="#E27525" stroke="#E27525" stroke-width="0.36" stroke-linecap="round" stroke-linejoin="round"/>
<path d="M12.027 13.0304L11.5352 15.6254L11.8876 15.8804L14.068 14.1404L14.1341 12.4004L12.027 13.0304Z" fill="#F5841F" stroke="#F5841F" stroke-width="0.36" stroke-linecap="round" stroke-linejoin="round"/>
<path d="M6.87305 12.4004L6.93182 14.1404L9.11221 15.8804L9.46462 15.6254L8.97274 13.0304L6.87305 12.4004Z" fill="#F5841F" stroke="#F5841F" stroke-width="0.36" stroke-linecap="round" stroke-linejoin="round"/>
<path d="M12.0716 18.2728L12.0935 17.5603L11.9027 17.3953H9.09824L8.91469 17.5603L8.92939 18.2728L6.58008 17.1328L7.40232 17.8228L9.06886 19.0003H11.9247L13.5986 17.8228L14.4135 17.1328L12.0716 18.2728Z" fill="#C0AC9D" stroke="#C0AC9D" stroke-width="0.36" stroke-linecap="round" stroke-linejoin="round"/>
<path d="M11.8869 15.88L11.5345 15.625H9.46417L9.11182 15.88L8.91357 17.56L9.09712 17.395H11.9016L12.0925 17.56L11.8869 15.88Z" fill="#161616" stroke="#161616" stroke-width="0.36" stroke-linecap="round" stroke-linejoin="round"/>
<path d="M19.376 6.99247L20.0001 3.8875L19.0603 1L11.8877 6.43751L14.6481 8.82248L18.5464 9.985L19.4054 8.95751L19.031 8.67997L19.6256 8.12502L19.1705 7.765L19.7652 7.29999L19.376 6.99247Z" fill="#763E1A" stroke="#763E1A" stroke-width="0.36" stroke-linecap="round" stroke-linejoin="round"/>
<path d="M1 3.8875L1.63137 6.99247L1.22759 7.29999L1.82959 7.765L1.37442 8.12502L1.96908 8.67997L1.59466 8.95751L2.45363 9.985L6.35201 8.82248L9.11238 6.43751L1.93972 1L1 3.8875Z" fill="#763E1A" stroke="#763E1A" stroke-width="0.36" stroke-linecap="round" stroke-linejoin="round"/>
<path d="M18.5457 9.98571L14.6474 8.82324L15.822 10.6383L14.0674 14.1407L16.3873 14.1107H19.8525L18.5457 9.98571Z" fill="#F5841F" stroke="#F5841F" stroke-width="0.36" stroke-linecap="round" stroke-linejoin="round"/>
<path d="M6.35159 8.82324L2.45326 9.98571L1.15381 14.1107H4.61167L6.93157 14.1407L5.17697 10.6383L6.35159 8.82324Z" fill="#F5841F" stroke="#F5841F" stroke-width="0.36" stroke-linecap="round" stroke-linejoin="round"/>
<path d="M11.6375 10.833L11.8871 6.43801L13.0177 3.31055H7.98145L9.11202 6.43801L9.36163 10.833L9.45708 12.213L9.46443 15.6255H11.5347L11.5421 12.213L11.6375 10.833Z" fill="#F5841F" stroke="#F5841F" stroke-width="0.36" stroke-linecap="round" stroke-linejoin="round"/>
</svg>
